<?xml version="1.0" standalone="no"?>
<!DOCTYPE svg PUBLIC "-//W3C//DTD SVG 20010904//EN"
 "http://www.w3.org/TR/2001/REC-SVG-20010904/DTD/svg10.dtd">
<svg version="1.0" xmlns="http://www.w3.org/2000/svg"
 width="1024.000000pt" height="1024.000000pt" viewBox="0 0 1024.000000 1024.000000"
 preserveAspectRatio="xMidYMid meet">

<g transform="translate(0.000000,1024.000000) scale(0.100000,-0.100000)"
fill="#000000" stroke="none">
<path d="M5700 8274 c-422 -57 -806 -194 -1174 -419 -524 -318 -949 -818
-1170 -1375 -49 -126 -121 -398 -113 -436 2 -13 1 -21 -3 -19 -5 3 -11 -23
-15 -57 -7 -59 -11 -67 -90 -163 -369 -449 -551 -1011 -506 -1562 39 -479 214
-882 550 -1267 533 -610 1405 -894 2232 -728 l133 27 43 60 c23 33 93 139 154
235 62 96 119 182 128 190 9 9 17 21 18 27 1 6 16 33 33 59 l30 47 14 -34 c8
-19 18 -47 21 -61 l7 -26 81 33 c106 43 255 115 237 115 -7 0 -71 -27 -142
-60 -70 -33 -138 -61 -149 -63 -17 -2 -25 8 -42 55 l-20 56 110 184 c110 183
110 183 190 238 118 82 236 176 353 283 58 52 108 93 113 90 4 -2 18 -26 31
-51 13 -26 34 -58 46 -72 27 -31 23 -23 -30 68 l-43 73 69 70 c42 43 89 79
121 94 47 21 85 45 246 154 26 18 47 34 47 37 0 5 -42 -20 -85 -52 -45 -34
-207 -134 -215 -134 -4 0 53 61 127 135 120 120 169 161 147 123 -4 -7 2 -4
14 6 26 23 30 34 5 15 -16 -13 -17 -12 -4 3 7 10 16 16 20 14 3 -2 14 2 24 9
16 12 18 33 19 216 1 389 -75 712 -252 1074 -271 556 -741 1020 -1275 1258
-163 72 -441 157 -517 157 -40 0 -35 15 10 33 109 44 294 59 447 36 73 -11 76
-12 110 -58 89 -122 230 -220 400 -278 58 -20 391 -94 413 -92 4 0 -30 13 -76
29 -120 41 -206 93 -287 174 -86 85 -131 170 -148 275 -6 39 -8 73 -6 76 3 2
41 10 85 16 136 19 264 -1 424 -68 151 -63 217 -74 306 -52 35 9 59 9 102 0
73 -16 727 -168 767 -179 l30 -8 -3 -109 c-4 -136 5 -155 49 -105 42 49 98
166 108 226 5 27 10 40 11 29 1 -11 4 -15 7 -7 2 6 11 12 18 12 7 0 16 6 18
13 3 7 6 5 6 -5 1 -19 16 -24 26 -9 3 5 17 8 31 5 14 -3 33 1 42 8 13 11 15
10 9 -4 -3 -10 -2 -18 4 -18 6 0 8 -4 4 -9 -3 -5 -1 -12 5 -16 15 -9 12 60 -4
98 -8 18 -38 55 -67 82 -32 29 -41 36 -24 16 17 -19 -15 10 -70 65 -55 55
-199 189 -320 298 -121 110 -228 206 -237 215 -10 9 -25 43 -33 75 -23 88 -62
153 -135 227 -53 54 -88 77 -195 131 -217 110 -418 189 -563 223 -192 45 -562
59 -782 29z m1099 -948 c11 -35 23 -80 26 -100 4 -20 10 -38 14 -41 4 -2 24
25 45 61 21 35 42 66 47 69 10 7 32 -44 42 -94 21 -105 -73 -188 -188 -167
-71 14 -134 98 -135 180 0 51 39 118 82 139 18 9 36 17 40 17 4 0 16 -29 27
-64z m-2343 -328 c12 -25 18 -66 21 -158 2 -69 1 -120 -4 -114 -10 16 -10
-347 0 -363 5 -8 4 -13 -3 -13 -6 0 -8 -5 -5 -10 4 -6 1 -18 -7 -27 -9 -12 -9
-15 0 -9 15 9 15 1 0 -27 -10 -20 -10 -21 6 -8 9 8 19 11 23 7 3 -3 1 -6 -6
-6 -7 0 -10 -4 -7 -9 3 -5 -1 -14 -10 -21 -8 -7 -13 -19 -10 -26 3 -7 -2 -15
-11 -18 -9 -4 -13 -9 -10 -13 4 -3 -3 -19 -14 -34 -27 -38 -67 -137 -91 -224
-23 -83 -34 -284 -20 -365 9 -49 10 -51 11 -17 2 70 32 190 63 251 36 71 151
191 193 202 41 10 213 -21 300 -55 171 -66 321 -203 400 -364 57 -117 78 -199
78 -312 0 -108 -20 -189 -69 -287 -41 -82 -135 -183 -201 -216 -38 -20 -44
-21 -95 -7 -125 33 -209 74 -313 154 -33 25 -64 44 -70 42 -5 -1 -87 7 -182
20 -148 20 -170 25 -160 38 10 12 9 13 -11 2 -13 -7 -64 -14 -112 -17 -81 -4
-91 -2 -109 17 -54 59 -224 379 -232 439 -2 14 -7 27 -10 30 -10 9 -50 150
-69 242 -24 123 -37 283 -21 274 8 -5 8 0 1 20 -14 37 -22 107 -12 100 5 -3 9
1 9 9 0 8 -4 12 -9 9 -11 -7 -10 10 2 22 5 5 14 43 20 84 16 110 37 195 73
294 29 80 38 94 92 141 167 147 355 270 505 331 30 12 56 23 57 23 1 1 9 -14
19 -31z m1593 -2550 c-11 -194 -51 -347 -137 -512 -169 -329 -473 -552 -847
-622 -109 -20 -338 -15 -455 11 -379 83 -708 322 -896 653 -81 141 -121 275
-138 457 l-6 60 38 -45 c270 -328 598 -535 970 -612 130 -27 418 -32 542 -9
172 31 358 105 499 198 167 111 300 268 386 455 22 48 42 88 45 88 3 0 2 -55
-1 -122z"/>
<path d="M4008 6334 c-49 -24 -88 -46 -88 -49 0 -5 179 82 189 91 15 14 -26
-3 -101 -42z"/>
<path d="M3720 5956 c0 -10 70 -146 75 -146 3 0 -11 33 -31 73 -38 74 -44 85
-44 73z"/>
<path d="M3817 5768 c10 -17 43 -57 73 -88 49 -50 50 -51 10 -6 -25 28 -56 68
-69 89 -28 45 -39 50 -14 5z"/>
<path d="M4108 5699 c-21 -11 -38 -22 -38 -24 0 -5 79 32 89 41 12 11 -18 1
-51 -17z"/>
<path d="M4294 5034 c-18 -14 -18 -15 4 -4 12 6 22 13 22 15 0 8 -5 6 -26 -11z"/>
<path d="M4540 5026 c0 -2 8 -10 18 -17 15 -13 16 -12 3 4 -13 16 -21 21 -21
13z"/>
<path d="M8131 6754 c0 -11 3 -14 6 -6 3 7 2 16 -1 19 -3 4 -6 -2 -5 -13z"/>
<path d="M7033 3572 c-45 -26 -85 -51 -90 -56 -10 -11 168 82 182 95 21 21
-14 5 -92 -39z"/>
<path d="M6945 3470 c3 -14 8 -51 12 -82 3 -32 9 -58 13 -58 9 0 -6 109 -20
141 l-11 24 6 -25z"/>
<path d="M6558 3341 c-122 -51 -156 -69 -151 -81 3 -8 12 -42 19 -75 7 -33 17
-80 23 -105 10 -44 10 -43 5 17 -3 34 -11 86 -19 115 -7 29 -11 56 -7 60 4 3
43 20 87 38 91 35 225 98 210 98 -5 0 -81 -30 -167 -67z"/>
<path d="M6785 3051 c-9 -9 -195 -74 -240 -84 -16 -4 -15 -5 5 -6 33 -1 218
63 238 83 17 17 13 23 -3 7z"/>
<path d="M6498 2953 c7 -3 16 -2 19 1 4 3 -2 6 -13 5 -11 0 -14 -3 -6 -6z"/>
<path d="M6487 2835 c3 -33 7 -62 9 -64 10 -11 9 9 -2 64 l-12 60 5 -60z"/>
<path d="M6007 2717 c3 -27 11 -72 19 -100 l13 -52 -6 48 c-3 27 -11 72 -19
100 l-13 52 6 -48z"/>
<path d="M6040 2546 c7 -6 139 -10 145 -4 3 3 -29 6 -72 7 -43 1 -75 0 -73 -3z"/>
<path d="M5895 2425 c22 -6 47 -10 55 -7 19 8 -22 20 -65 20 -28 0 -27 -1 10
-13z"/>
</g>
</svg>
